#!OML:ASF F:\VICON\USERDATA\INSTALL\rory3\rory3.ASF
:FULLY-SPECIFIED
:DEGREES
19
root -0.6419760317479691 17.68320093248506 -13.63869065038759 -1.443402326311638 6.873764402984101 -3.8860754810843834
lfemur -23.751495920870408 -3.5018230004608584 -21.614798867659587
ltibia 40.959604633339474
lfoot -11.770491996728364 -10.71139388743888
ltoes -1.5494390239154843
rfemur -7.6380753301989905 -2.109073517608749 27.04960375529271
rtibia 96.09898865247399
rfoot 21.073189087599005 -13.16358962457693
rtoes 16.75529106259753
lowerback 16.497294635484977 1.0708685913804965 2.7687665359482985
upperback -0.08104018777185096 2.0672180383900507 1.1520152444739202
thorax -9.314926447008249 0.8915203793086182 -0.8248265632379427
lowerneck -18.957109094300737 -5.346237068944437 -1.6914257463877636
upperneck 15.2428908125415 -7.620285747627456 4.051617609656949
head 8.059281610746092 -3.300166925302631 0.6760169325131471
lclavicle -1.7288339579140553e-15 1.783627740629379e-15
lhumerus -61.08469310126232 -12.545202548319788 100.14099148708108
lradius 104.07300444904128
lwrist 33.45060031305122
lhand -25.856195481089546 0.7974909758354536
lfingers 7.12502
lthumb 0.684611519400963 30.77610395177544
rclavicle -1.7288339579140553e-15 1.783627740629379e-15
rhumerus -48.45430221697046 14.403489815674888 -101.75298744529049
rradius 104.67300786406638
rwrist -7.877918230301855
rhand -19.721584468400557 40.739094005457744
rfingers 7.12502
rthumb 6.608565532168662 10.86219468936517
20
root -0.6466339103870664 17.47490431414389 -12.685891039268492 -1.142003884183656 6.63226503288362 -2.5196102223006083
lfemur -22.37229655418441 -3.797762318587235 -23.29889628152626
ltibia 45.081003001255546
lfoot -17.15248826865023 -7.689818902664648
ltoes 2.0965073225176187
rfemur -13.30770288516755 -3.7861098897905276 23.90240920158558
rtibia 102.40698647708163
rfoot 20.9978891398462 -9.95280439973143
rtoes 15.041692191438207
lowerback 16.84359273138025 1.0303288417645033 0.9001372992779871
upperback 0.15045853836227496 1.6215396971318086 0.8064198388995274
thorax -9.309296525011272 0.7562996184504949 -0.03689989538283012
lowerneck -19.70270474383185 -5.254087752484087 -1.3674711134684912
upperneck 15.087891778435758 -7.553946082323309 3.969378362841346
head 8.117170200135464 -3.248607496699133 0.5904370412084002
lclavicle -1.7288340642170575e-15 1.7836277577894746e-15
lhumerus -56.90879589786926 -14.232599849969652 100.17699136519632
lradius 104.53000395767764
lwrist 34.90129571553891
lhand -24.961000402569145 0.056295737182686656
lfingers 7.12502
lthumb 1.5492695971520145 30.030406436413436
rclavicle -1.7288340642170575e-15 1.7836277577894746e-15
rhumerus -49.23730147087694 13.324791676259078 -101.86498716016362
rradius 101.65501299726837
rwrist -6.520573173385253
rhand -22.246571700123983 37.443715014804695
rfingers 7.12502
rthumb 4.170698307340958 7.504846518230566
21
root -0.3827907799762994 17.961124714516696 -3.2316855364800112 1.66078111576409 2.5968748398874744 -1.3107646925754104
lfemur -11.17724467157641 -1.9634571626360517 -24.429540948737724
ltibia 46.508182184813236
lfoot -9.256753299233953 -4.456338539115011
ltoes -7.65380327941986
rfemur -27.301385242756204 -2.1225473743178265 26.705831479195012
rtibia 78.61587255700427
rfoot 8.651900126497509 -7.86610615689319
rtoes 0.49491805235105923
lowerback 15.422994771271108 0.556518425037889 -0.5366944675609586
upperback -0.6245272493827858 0.8323565044877067 0.960328804812366
thorax -9.505158340359568 0.4450674828679111 1.535749302577832
lowerneck -20.096779594484875 -4.204304577189565 -1.7978926635973274
upperneck 14.336248383336617 -5.880944455605783 2.640857316100685
head 7.828460477723381 -2.5967837884753764 0.49213980055687634
lclavicle -2.371637271181752e-15 1.3173813358427972e-15
lhumerus -53.26670991609273 -16.727865297971537 98.65329698450248
lradius 108.06500613336047
lwrist 33.517612701105406
lhand -24.64061988563973 3.522026596131909
lfingers 7.12502
lthumb 1.858414559599412 33.47553353903381
rclavicle -2.371637271181752e-15 1.3173813358427972e-15
rhumerus -50.613604890732795 7.148340004872484 -96.727127411382
rradius 108.53865715967994
rwrist -9.847637351721119
rhand -17.19681387498359 39.37974778989026
rfingers 7.12502
rthumb 9.045008426294261 9.622361228017418
22
root -0.3475130898229133 17.949058800555385 -3.591871736117753 2.4392945248689175 2.675559807188996 -1.09767723646197
lfemur -8.98900838560008 -2.5674057420446665 -25.900424535808327
ltibia 39.81585547285816
lfoot -10.961485113433929 -4.573168961219373
ltoes -8.41905386694115
rfemur -31.8014410626456 -1.845892793429519 25.236136758345772
rtibia 70.49010303992056
rfoot 6.908491994765889 -10.553019740955731
rtoes -5.958357900651263
lowerback 14.725824373299082 0.264388617115605 -1.2543464404186822
upperback -0.7931722159669816 0.3376688134066457 0.7765856895047643
thorax -9.447485888237432 0.24362318409133538 1.5984263182232414
lowerneck -20.727061111624547 -3.9507388099715626 -1.8985082967123277
upperneck 13.75765076219473 -5.494196783139795 2.579195669725775
head 7.7252462690535255 -2.4088432253787806 0.5045053785020412
lclavicle -4.411424470137188e-15 -1.6214324328776253e-16
lhumerus -51.05741843295733 -18.27344309358642 98.04519710693825
lradius 108.96270200099521
lwrist 33.37189212862067
lhand -24.21281264829385 4.299170762815553
lfingers 7.12502
lthumb 2.2715791497567275 34.25367143498492
rclavicle -4.411424470137188e-15 -1.6214324328776253e-16
rhumerus -52.323227411446666 6.707253530229677 -97.0377600061422
rradius 108.53752909231646
rwrist -10.463711111826514
rhand -16.86229001014953 39.42835884197544
rfingers 7.12502
rthumb 9.367825843995572 9.679062066310278
23
root -0.3137047371927758 17.94531277589162 -3.425031477183209 2.920031178471269 3.4527602064433993 -0.8280203300775868
lfemur -4.734566120534719 -2.71015636917521 -26.08066475577437
ltibia 38.817449817242704
lfoot -9.428239656636018 -5.427243147548028
ltoes -9.424312606566913
rfemur -33.07309460221999 -0.9541376926665963 24.777248993612364
rtibia 64.19206192833978
rfoot 5.329674187672132 -12.11768532931741
rtoes -8.206730301420773
lowerback 14.481272819228101 0.04257364347509496 -1.6602437774851702
upperback -0.8802980722867018 -0.02400381215621028 0.9063473238556491
thorax -9.388719448672756 0.09751826701456978 2.1621307363041162
lowerneck -21.35372438252319 -3.7399890489689436 -1.8879331550152614
upperneck 13.390016550511353 -5.154812669477506 2.52762417287822
head 7.682398108169501 -2.249764658981408 0.5008822424813222
lclavicle -3.976889646711527e-15 1.5303917631827351e-16
lhumerus -48.602965005252685 -18.878438082734995 97.7600446768332
lradius 110.11775186186766
lwrist 33.51307868789815
lhand -23.90357247607795 5.11802676343494
lfingers 7.12502
lthumb 2.5702420747229104 35.07127181931911
rclavicle -3.976889646711527e-15 1.5303917631827351e-16
rhumerus -54.06563210958414 5.741552947665259 -96.05501438658264
rradius 107.80490869349764
rwrist -10.225129625634127
rhand -17.055624885805052 39.56111067897149
rfingers 7.12502
rthumb 9.181268509942296 9.806438587097253
